<svg width="111" height="106" viewBox="0 0 111 106" fill="none" xmlns="http://www.w3.org/2000/svg">
<g clip-path="url(#clip0_1_99)">
<path d="M33.536 73.7192C30.6008 72.1267 28.6174 69.1346 28.6174 65.71C28.6174 51.5748 40.7741 40.0752 55.717 40.0752H66.8846L67.4105 31.8721H4.13293L8.67805 102.81C8.78221 104.434 10.2041 105.7 11.9241 105.7H31.8779C29.8318 103.128 28.6174 99.9316 28.6174 96.4717C28.6174 92.4831 31.3071 89.0777 35.0604 87.7919C33.7299 85.8621 32.9534 83.5614 32.9534 81.0908C32.9534 78.6179 33.7316 76.3147 35.0646 74.3833C34.0043 74.1574 33.4158 73.9355 33.536 73.7192Z" fill="#64646A"/>
<path d="M35.7682 25.7205C35.7707 25.7205 35.7732 25.7197 35.7758 25.7197H68.2911C70.0873 25.7197 71.543 24.3427 71.543 22.6436C71.543 20.9445 70.0873 19.5674 68.2911 19.5674H41.775L50.5408 6.85254H61.7872C63.5834 6.85254 65.0391 5.47547 65.0391 3.77637C65.0391 2.07726 63.5834 0.700195 61.7872 0.700195H48.7794C47.6801 0.700195 46.6554 1.22491 46.0558 2.09569L34.0101 19.5674H3.25201C1.45582 19.5674 6.10352e-05 20.9445 6.10352e-05 22.6436C6.10352e-05 24.3427 1.45582 25.7197 3.25201 25.7197H35.7563C35.7605 25.7197 35.7648 25.7205 35.7682 25.7205Z" fill="#64646A"/>
<path d="M35.1212 65.71C35.1212 67.4091 36.5769 68.7861 38.3731 68.7861H107.748C109.544 68.7861 111 67.4091 111 65.71C111 54.9674 101.761 46.2275 90.4044 46.2275H55.7169C44.3604 46.2275 35.1212 54.9674 35.1212 65.71Z" fill="#64646A"/>
<path d="M45.961 74.9385C42.3686 74.9385 39.4571 77.6926 39.4571 81.0908C39.4571 84.489 42.3686 87.2432 45.961 87.2432H100.16C103.753 87.2432 106.664 84.489 106.664 81.0908C106.664 77.6926 103.753 74.9385 100.16 74.9385H45.961Z" fill="#64646A"/>
<path d="M107.748 93.3955H38.3731C36.5769 93.3955 35.1212 94.7726 35.1212 96.4717C35.1212 101.56 39.4977 105.7 44.877 105.7H101.244C106.623 105.7 111 101.56 111 96.4717C111 94.7726 109.544 93.3955 107.748 93.3955Z" fill="#64646A"/>
</g>
<defs>
<clipPath id="clip0_1_99">
<rect width="111" height="105" fill="white" transform="translate(6.10352e-05 0.700195)"/>
</clipPath>
</defs>
</svg>
