<svg width="113" height="106" viewBox="0 0 113 106" fill="none" xmlns="http://www.w3.org/2000/svg">
<g clip-path="url(#clip0_1_119)">
<path d="M94.7001 55.7963C94.1919 55.2509 93.761 54.6559 93.4057 54.0276C93.2311 70.9127 78.5274 84.5999 60.4759 84.5999C42.3163 84.5999 27.542 70.749 27.542 53.7243C27.542 36.6997 42.3163 22.8488 60.4759 22.8488C76.0979 22.8488 89.2141 33.0995 92.5748 46.8024L95.5572 26.017L95.6244 25.5496C87.132 16.2515 74.5263 10.3481 60.4759 10.3481C49.5142 10.3481 39.4324 13.9427 31.4964 19.9377V20.3865V20.7839V29.5878V29.9372C31.4964 35.8178 28.2453 41.1866 23.101 44.2544V78.6676V79.2605C31.524 90.066 45.139 97.0999 60.4759 97.0999C76.592 97.0999 90.8077 89.3331 99.0944 77.5842V76.9486V58.516C97.4131 58.0032 95.8896 57.0716 94.7001 55.7963Z" fill="#64646A"/>
<path d="M60.4759 28.0962C45.4024 28.0962 33.1389 39.5929 33.1389 53.7247C33.1389 67.8565 45.402 79.3532 60.4759 79.3532C75.5498 79.3532 87.813 67.8565 87.813 53.7247C87.813 39.5929 75.5495 28.0962 60.4759 28.0962Z" fill="#64646A"/>
<path d="M112.775 5.76386C112.775 3.5307 110.845 1.72046 108.462 1.72046C106.303 1.72046 104.476 3.21798 104.188 5.22481L97.8862 49.1425C97.7202 50.2986 98.0952 51.4652 98.9138 52.3432C99.7328 53.2212 100.916 53.7246 102.16 53.7246H104.691V100.832C104.691 102.957 106.529 104.68 108.795 104.68C111.062 104.68 112.9 102.957 112.9 100.832L112.775 5.76386Z" fill="#64646A"/>
<path d="M25.8995 6.61768C25.8995 5.16844 24.6469 3.99414 23.1011 3.99414C21.5552 3.99414 20.3026 5.16844 20.3026 6.61768V21.1343H16.1982V6.61768C16.1982 5.16844 14.9457 3.99414 13.3998 3.99414C11.8539 3.99414 10.6014 5.16844 10.6014 6.61768V21.1343H6.49697V6.61768C6.49697 5.16844 5.24439 3.99414 3.69853 3.99414C2.15267 3.99414 0.900085 5.16844 0.900085 6.61768V30.2876C0.900085 35.4014 4.41381 39.7579 9.29541 41.354V100.832C9.29541 102.957 11.1331 104.68 13.3998 104.68C15.6665 104.68 17.5042 102.957 17.5042 100.832V41.354C22.3858 39.7579 25.8995 35.4014 25.8995 30.2876V6.61768Z" fill="#64646A"/>
</g>
<defs>
<clipPath id="clip0_1_119">
<rect width="112" height="105" fill="white" transform="translate(0.900085 0.700195)"/>
</clipPath>
</defs>
</svg>
