<svg width="113" height="106" viewBox="0 0 113 106" fill="none" xmlns="http://www.w3.org/2000/svg">
<g clip-path="url(#clip0_1_112)">
<path d="M87.5312 36.8504C86.284 36.1016 85.6323 34.7571 85.8729 33.4258C88.9387 16.3725 74.8939 0.942226 56.8242 0.703112C38.0098 0.452831 23.6043 16.348 26.9815 33.772C27.2337 35.0812 26.6661 36.4235 25.5357 37.1898C22.4082 39.3116 20.6798 42.7409 20.9134 46.3581C21.523 55.8006 34.1356 59.6716 40.6217 52.5439C40.7128 52.5965 40.8062 52.6512 40.8973 52.7018C41.8503 53.2426 42.4179 54.1665 42.4179 55.1739V59.7C42.4179 61.4167 43.1443 63.0194 44.4639 64.2127C48.6688 68.0158 55.7965 65.2885 55.7965 59.5905V49.3338C55.7965 46.8354 58.9076 45.5106 60.8042 47.2385C61.3834 47.7662 61.7011 48.4713 61.7011 49.2243V54.4796C61.7011 57.9969 64.7989 60.8722 68.6357 60.7489C73.6784 60.5735 74.7505 57.0001 75.0284 54.2869C82.2911 59.0941 92.3684 54.4069 92.7 46.1065C92.8472 42.3969 90.8665 38.8496 87.5312 36.8504ZM51.8259 15.3239C50.2304 15.8222 50.1298 16.0857 49.4272 16.0857C47.4295 16.0857 46.8365 13.5318 48.6377 12.7464C49.2917 12.4617 49.9691 12.2099 50.6534 11.9975C51.6344 11.6931 52.6901 12.1924 53.0148 13.1121C53.3371 14.0298 52.8069 15.0215 51.8259 15.3239ZM40.1196 26.6859C38.9067 26.6859 38.0137 25.6217 38.3024 24.5159C38.9681 21.9803 40.2574 19.5673 42.0371 17.5418C42.6911 16.7951 43.8706 16.6878 44.6671 17.3009C45.4636 17.9162 45.578 19.0198 44.9217 19.7665C43.4969 21.3913 42.4646 23.3204 41.932 25.3524C41.7242 26.1519 40.9604 26.6859 40.1196 26.6859ZM78.7463 59.4793C79.8445 59.6731 80.4796 60.7596 80.0681 61.7338L63.3522 101.302C60.8801 107.165 51.9093 107.168 49.4363 101.302L32.7699 61.856C32.343 60.8457 33.0434 59.7361 34.1917 59.5862C34.9463 59.4874 35.6963 59.3348 36.4339 59.1268C37.5181 58.8211 38.6271 59.5091 38.7347 60.5656C38.909 62.2755 39.5651 64.6529 41.8687 66.7355C47.5932 71.9104 56.674 69.2933 58.9847 62.8168C59.3825 61.7018 60.842 61.3322 61.8162 62.0723C66.3752 65.5362 73.6188 64.8677 76.9058 60.169C77.2702 59.6488 77.9552 59.3396 78.7463 59.4793Z" fill="#64646A"/>
</g>
<defs>
<clipPath id="clip0_1_112">
<rect width="112" height="105" fill="white" transform="translate(0.800049 0.700195)"/>
</clipPath>
</defs>
</svg>
