<svg width="21" height="20" viewBox="0 0 21 20" fill="none" xmlns="http://www.w3.org/2000/svg">
<g clip-path="url(#clip0_1_292)">
<path d="M13.4 10.8137L11.7585 12.4607C11.0928 13.1288 9.92157 13.1432 9.2415 12.4607L7.59989 10.8137L1.70396 16.7287C1.92343 16.8302 2.16541 16.8908 2.42266 16.8908H18.5773C18.8346 16.8908 19.0765 16.8303 19.2959 16.7288L13.4 10.8137Z" fill="#64646A"/>
<path d="M18.5773 3.10956H2.42266C2.16541 3.10956 1.92343 3.17012 1.70404 3.2716L8.00425 9.59272C8.00467 9.59314 8.00517 9.59321 8.00559 9.59364C8.00601 9.59406 8.00609 9.59463 8.00609 9.59463L10.0546 11.65C10.2722 11.8675 10.7278 11.8675 10.9454 11.65L12.9936 9.59498C12.9936 9.59498 12.9941 9.59406 12.9945 9.59364C12.9945 9.59364 12.9954 9.59314 12.9958 9.59272L19.2959 3.27156C19.0765 3.17004 18.8346 3.10956 18.5773 3.10956Z" fill="#64646A"/>
<path d="M0.883211 4.07471C0.769669 4.30432 0.699997 4.55919 0.699997 4.83222V15.1682C0.699997 15.4412 0.769592 15.6961 0.883173 15.9257L6.78932 10.0004L0.883211 4.07471Z" fill="#64646A"/>
<path d="M20.1168 4.07465L14.2107 10.0004L20.1168 15.9258C20.2303 15.6961 20.3 15.4413 20.3 15.1682V4.83223C20.3 4.55913 20.2303 4.30426 20.1168 4.07465Z" fill="#64646A"/>
</g>
<defs>
<clipPath id="clip0_1_292">
<rect width="19.6" height="19.6" fill="white" transform="translate(0.699997 0.200195)"/>
</clipPath>
</defs>
</svg>
